<svg width="72" height="72" viewBox="0 0 72 72" fill="none" xmlns="http://www.w3.org/2000/svg">
<rect width="72" height="72" rx="36" fill="#1B424C"/>
<path d="M51.0656 32.2812C50.4562 31.6453 49.8266 30.9891 49.5734 30.3781C49.3391 29.8109 49.3266 28.9719 49.3125 28.0844C49.2906 26.6187 49.2656 24.9594 48.1531 23.8469C47.0406 22.7344 45.375 22.7094 43.9156 22.6875C43.0281 22.6734 42.1969 22.6609 41.6219 22.4266C41.0109 22.1734 40.3547 21.5438 39.7188 20.9344C38.6812 19.9406 37.5063 18.8125 36 18.8125C34.4937 18.8125 33.3187 19.9406 32.2812 20.9344C31.6453 21.5438 30.9891 22.1734 30.3781 22.4266C29.8109 22.6609 28.9719 22.6734 28.0844 22.6875C26.6187 22.7094 24.9594 22.7344 23.8469 23.8469C22.7344 24.9594 22.7094 26.625 22.6875 28.0844C22.6734 28.9719 22.6609 29.8031 22.4266 30.3781C22.1734 30.9891 21.5438 31.6453 20.9344 32.2812C19.9406 33.3187 18.8125 34.4937 18.8125 36C18.8125 37.5063 19.9406 38.6812 20.9344 39.7188C21.5438 40.3547 22.1734 41.0109 22.4266 41.6219C22.6609 42.1891 22.6734 43.0281 22.6875 43.9156C22.7094 45.3813 22.7344 47.0406 23.8469 48.1531C24.9594 49.2656 26.625 49.2906 28.0844 49.3125C28.9719 49.3266 29.8031 49.3391 30.3781 49.5734C30.9891 49.8266 31.6453 50.4562 32.2812 51.0656C33.3187 52.0594 34.4937 53.1875 36 53.1875C37.5063 53.1875 38.6812 52.0594 39.7188 51.0656C40.3547 50.4562 41.0109 49.8266 41.6219 49.5734C42.1891 49.3391 43.0281 49.3266 43.9156 49.3125C45.3813 49.2906 47.0406 49.2656 48.1531 48.1531C49.2656 47.0406 49.2906 45.3813 49.3125 43.9156C49.3266 43.0281 49.3391 42.1969 49.5734 41.6219C49.8266 41.0109 50.4562 40.3547 51.0656 39.7188C52.0594 38.6812 53.1875 37.5063 53.1875 36C53.1875 34.4937 52.0594 33.3187 51.0656 32.2812ZM49.7125 38.4219C48.9828 39.1812 48.2281 39.9688 47.8375 40.9062C47.4656 41.8031 47.45 42.8625 47.4344 43.8875C47.4172 45.05 47.3984 46.2531 46.825 46.8281C46.2516 47.4031 45.0469 47.4203 43.8844 47.4375C42.8594 47.4531 41.8 47.4688 40.9031 47.8406C39.9656 48.2281 39.1844 48.9828 38.4172 49.7156C37.5969 50.4969 36.7484 51.3156 35.9969 51.3156C35.2453 51.3156 34.3969 50.5016 33.575 49.7156C32.8156 48.9859 32.0281 48.2313 31.0906 47.8406C30.1938 47.4688 29.1344 47.4531 28.1094 47.4375C26.9469 47.4203 25.7438 47.4016 25.1687 46.8281C24.5938 46.2547 24.5766 45.05 24.5594 43.8875C24.5437 42.8625 24.5281 41.8031 24.1562 40.9062C23.7688 39.9688 23.0141 39.1875 22.2812 38.4203C21.5016 37.6 20.6875 36.7516 20.6875 36C20.6875 35.2484 21.5016 34.4 22.2875 33.5781C23.0172 32.8188 23.7719 32.0312 24.1625 31.0938C24.5344 30.1969 24.55 29.1375 24.5656 28.1125C24.5828 26.95 24.6016 25.7469 25.175 25.1719C25.7484 24.5969 26.9531 24.5797 28.1156 24.5625C29.1406 24.5469 30.2 24.5312 31.0969 24.1594C32.0344 23.7719 32.8156 23.0172 33.5828 22.2844C34.4 21.5016 35.2484 20.6875 36 20.6875C36.7516 20.6875 37.6 21.5016 38.4219 22.2875C39.1812 23.0172 39.9688 23.7719 40.9062 24.1625C41.8031 24.5344 42.8625 24.55 43.8875 24.5656C45.05 24.5828 46.2531 24.6016 46.8281 25.175C47.4031 25.7484 47.4203 26.9531 47.4375 28.1156C47.4531 29.1406 47.4688 30.2 47.8406 31.0969C48.2281 32.0344 48.9828 32.8156 49.7156 33.5828C50.4969 34.4031 51.3156 35.2516 51.3156 36.0031C51.3156 36.7547 50.4984 37.6 49.7125 38.4219ZM42.9125 31.5875C43.0881 31.7633 43.1867 32.0016 43.1867 32.25C43.1867 32.4984 43.0881 32.7367 42.9125 32.9125L34.1625 41.6625C33.9867 41.8381 33.7484 41.9367 33.5 41.9367C33.2516 41.9367 33.0133 41.8381 32.8375 41.6625L29.0875 37.9125C28.9219 37.7348 28.8317 37.4997 28.836 37.2568C28.8403 37.014 28.9387 36.7822 29.1105 36.6105C29.2822 36.4387 29.514 36.3403 29.7568 36.336C29.9997 36.3317 30.2348 36.4219 30.4125 36.5875L33.5 39.6734L41.5875 31.5875C41.7633 31.4119 42.0016 31.3133 42.25 31.3133C42.4984 31.3133 42.7367 31.4119 42.9125 31.5875Z" fill="#CBE3FF"/>
</svg>
