<svg width="64" height="65" viewBox="0 0 64 65" fill="none" xmlns="http://www.w3.org/2000/svg">
<rect y="0.5" width="64" height="64" rx="32" fill="#006BE8"/>
<path d="M17 33C17 34.9698 17.388 36.9204 18.1418 38.7403C18.8956 40.5601 20.0005 42.2137 21.3934 43.6066C22.7863 44.9995 24.4399 46.1044 26.2597 46.8582C28.0796 47.612 30.0302 48 32 48C33.9698 48 35.9204 47.612 37.7403 46.8582C39.5601 46.1044 41.2137 44.9995 42.6066 43.6066C43.9995 42.2137 45.1044 40.5601 45.8582 38.7403C46.612 36.9204 47 34.9698 47 33C47 31.0302 46.612 29.0796 45.8582 27.2597C45.1044 25.4399 43.9995 23.7863 42.6066 22.3934C41.2137 21.0005 39.5601 19.8956 37.7403 19.1418C35.9204 18.388 33.9698 18 32 18C30.0302 18 28.0796 18.388 26.2597 19.1418C24.4399 19.8956 22.7863 21.0005 21.3934 22.3934C20.0005 23.7863 18.8956 25.4399 18.1418 27.2597C17.388 29.0796 17 31.0302 17 33Z" stroke="#F8F8F8" stroke-width="2" stroke-linecap="round" stroke-linejoin="round"/>
<path d="M36.6667 27.9998C36.3647 27.4761 35.9261 27.0443 35.3976 26.7508C34.8692 26.4572 34.2708 26.3128 33.6667 26.3332H30.3333C29.4493 26.3332 28.6014 26.6844 27.9763 27.3095C27.3512 27.9346 27 28.7824 27 29.6665C27 30.5506 27.3512 31.3984 27.9763 32.0235C28.6014 32.6486 29.4493 32.9998 30.3333 32.9998H33.6667C34.5507 32.9998 35.3986 33.351 36.0237 33.9761C36.6488 34.6013 37 35.4491 37 36.3332C37 37.2172 36.6488 38.0651 36.0237 38.6902C35.3986 39.3153 34.5507 39.6665 33.6667 39.6665H30.3333C29.7292 39.6868 29.1308 39.5425 28.6024 39.2489C28.0739 38.9553 27.6353 38.5236 27.3333 37.9998M32 24.6665V41.3332" stroke="#F8F8F8" stroke-width="2" stroke-linecap="round" stroke-linejoin="round"/>
</svg>
