<svg width="65" height="65" viewBox="0 0 65 65" fill="none" xmlns="http://www.w3.org/2000/svg">
<rect x="0.666748" y="0.5" width="64" height="64" rx="32" fill="#006BE8"/>
<path d="M36.9515 32.4459C36.7396 31.8409 36.3446 31.3169 35.8213 30.9468C35.298 30.5766 34.6724 30.3785 34.0315 30.3801H31.6372C30.955 30.3788 30.2964 30.6299 29.7882 31.0851C29.2801 31.5403 28.9583 32.1674 28.8849 32.8456C28.8115 33.5239 28.9916 34.2053 29.3905 34.7587C29.7895 35.3121 30.3791 35.6983 31.0458 35.843L34.6943 36.643C35.4378 36.8088 36.0941 37.2428 36.5377 37.8619C36.9814 38.4811 37.1813 39.2421 37.0993 39.9994C37.0173 40.7567 36.659 41.4572 36.0931 41.967C35.5272 42.4768 34.7932 42.7602 34.0315 42.763H31.9715C30.6229 42.763 29.4772 41.9001 29.0515 40.7001M33 30.3801V27.2859M33 45.8573V42.763M33 51.5716C43 51.5716 50.1429 48.0344 50.1429 40.1601C50.1429 31.603 45.8572 25.8973 37.2858 21.6173L40.6572 17.2801C40.8289 16.9956 40.9221 16.6707 40.9274 16.3385C40.9326 16.0062 40.8498 15.6785 40.6871 15.3887C40.5245 15.0989 40.288 14.8574 40.0017 14.6888C39.7154 14.5201 39.3895 14.4304 39.0572 14.4287H26.9429C26.6113 14.4322 26.2865 14.523 26.0012 14.692C25.7159 14.8611 25.4803 15.1024 25.318 15.3916C25.1557 15.6807 25.0726 16.0076 25.0769 16.3392C25.0813 16.6708 25.1731 16.9953 25.3429 17.2801L28.7143 21.6459C20.1429 25.9544 15.8572 31.6601 15.8572 40.2173C15.8572 48.0344 23 51.5716 33 51.5716Z" stroke="#F8F8F8" stroke-width="2.3" stroke-linecap="round" stroke-linejoin="round"/>
</svg>
