<svg width="64" height="65" viewBox="0 0 64 65" fill="none" xmlns="http://www.w3.org/2000/svg">
<rect y="0.5" width="64" height="64" rx="32" fill="#006BE8"/>
<path d="M38.6667 19.6699C42.2917 19.6899 44.255 19.8516 45.535 21.1316C47 22.5966 47 24.9533 47 29.6666V39.6666C47 44.3816 47 46.7383 45.535 48.2033C44.0717 49.6666 41.7133 49.6666 37 49.6666H27C22.2867 49.6666 19.9283 49.6666 18.465 48.2033C17 46.7366 17 44.3816 17 39.6666V29.6666C17 24.9533 17 22.5966 18.465 21.1316C19.745 19.8516 21.7083 19.6899 25.3333 19.6699" stroke="#F8F8F8" stroke-width="2.5"/>
<path d="M29.5001 36.3333H40.3334M23.6667 36.3333H24.5001M23.6667 30.5H24.5001M23.6667 42.1667H24.5001M29.5001 30.5H40.3334M29.5001 42.1667H40.3334" stroke="#F8F8F8" stroke-width="2.5" stroke-linecap="round"/>
<path d="M25.3333 18.8335C25.3333 18.1705 25.5966 17.5346 26.0655 17.0657C26.5343 16.5969 27.1702 16.3335 27.8333 16.3335H36.1666C36.8296 16.3335 37.4655 16.5969 37.9344 17.0657C38.4032 17.5346 38.6666 18.1705 38.6666 18.8335V20.5002C38.6666 21.1632 38.4032 21.7991 37.9344 22.2679C37.4655 22.7368 36.8296 23.0002 36.1666 23.0002H27.8333C27.1702 23.0002 26.5343 22.7368 26.0655 22.2679C25.5966 21.7991 25.3333 21.1632 25.3333 20.5002V18.8335Z" stroke="#F8F8F8" stroke-width="2.5"/>
</svg>
