<svg width="22" height="22" viewBox="0 0 22 22" fill="none" xmlns="http://www.w3.org/2000/svg">
<path d="M11 8.49969C10.5055 8.49987 10.0222 8.64667 9.61116 8.92152C9.20011 9.19637 8.87978 9.58693 8.69068 10.0438C8.50158 10.5007 8.4522 11.0034 8.54878 11.4884C8.64536 11.9733 8.88357 12.4187 9.23328 12.7683C9.58299 13.1179 10.0285 13.3559 10.5135 13.4523C10.9985 13.5487 11.5012 13.4992 11.958 13.3099C12.4148 13.1206 12.8052 12.8002 13.0799 12.389C13.3546 11.9778 13.5012 11.4945 13.5012 11C13.5008 10.3369 13.237 9.70105 12.768 9.23223C12.2991 8.76341 11.6631 8.49994 11 8.49969ZM16.8458 6.57781C16.7185 6.25524 16.5263 5.96226 16.2811 5.71705C16.0359 5.47184 15.7429 5.27963 15.4203 5.15234C14.4359 4.76375 12.0922 4.85094 11 4.85094C9.90781 4.85094 7.56641 4.76047 6.57922 5.15234C6.25664 5.27963 5.96367 5.47184 5.71846 5.71705C5.47325 5.96226 5.28104 6.25524 5.15375 6.57781C4.76562 7.56219 4.85234 9.90828 4.85234 10.9995C4.85234 12.0908 4.76562 14.4341 5.15562 15.4217C5.28291 15.7443 5.47512 16.0373 5.72033 16.2825C5.96554 16.5277 6.25852 16.7199 6.58109 16.8472C7.56547 17.2358 9.90922 17.1486 11.0019 17.1486C12.0945 17.1486 14.435 17.2391 15.4222 16.8472C15.7448 16.7199 16.0377 16.5277 16.283 16.2825C16.5282 16.0373 16.7204 15.7443 16.8477 15.4217C17.2391 14.4373 17.1491 12.0913 17.1491 11C17.1491 9.90875 17.2391 7.56594 16.8477 6.57828L16.8458 6.57781ZM11 14.8438C10.2398 14.8438 9.49663 14.6183 8.86453 14.196C8.23243 13.7736 7.73976 13.1733 7.44884 12.4709C7.15791 11.7686 7.08179 10.9957 7.23011 10.2501C7.37842 9.50451 7.7445 8.81962 8.28206 8.28206C8.81962 7.7445 9.50451 7.37842 10.2501 7.23011C10.9957 7.08179 11.7686 7.15791 12.4709 7.44884C13.1733 7.73976 13.7736 8.23243 14.196 8.86453C14.6183 9.49663 14.8438 10.2398 14.8438 11C14.8444 11.5049 14.7454 12.005 14.5524 12.4717C14.3595 12.9383 14.0764 13.3623 13.7193 13.7193C13.3623 14.0764 12.9383 14.3595 12.4717 14.5524C12.005 14.7454 11.5049 14.8444 11 14.8438ZM15.0022 7.89219C14.8247 7.89228 14.6512 7.83974 14.5036 7.74121C14.356 7.64268 14.2409 7.5026 14.173 7.33866C14.105 7.17473 14.0871 6.99432 14.1217 6.82026C14.1563 6.64619 14.2417 6.48628 14.3671 6.36076C14.4926 6.23524 14.6525 6.14974 14.8265 6.11509C15.0006 6.08043 15.181 6.09817 15.3449 6.16606C15.5089 6.23395 15.6491 6.34895 15.7477 6.4965C15.8463 6.64405 15.8989 6.81753 15.8989 6.995C15.8994 7.11285 15.8766 7.22964 15.8319 7.33866C15.7871 7.44769 15.7213 7.54681 15.6382 7.63034C15.555 7.71387 15.4562 7.78016 15.3474 7.82542C15.2386 7.87067 15.1219 7.894 15.0041 7.89406L15.0022 7.89219ZM19.25 0.5H2.75C2.15326 0.5 1.58097 0.737053 1.15901 1.15901C0.737053 1.58097 0.5 2.15326 0.5 2.75L0.5 19.25C0.5 19.8467 0.737053 20.419 1.15901 20.841C1.58097 21.2629 2.15326 21.5 2.75 21.5H19.25C19.8467 21.5 20.419 21.2629 20.841 20.841C21.2629 20.419 21.5 19.8467 21.5 19.25V2.75C21.5 2.15326 21.2629 1.58097 20.841 1.15901C20.419 0.737053 19.8467 0.5 19.25 0.5ZM18.4475 14.0938C18.387 15.2952 18.1128 16.3597 17.2358 17.2344C16.3588 18.1091 15.2952 18.3889 14.0952 18.4461C12.8572 18.5159 9.14563 18.5159 7.90766 18.4461C6.70625 18.3856 5.64547 18.1109 4.76703 17.2344C3.88859 16.3578 3.6125 15.2928 3.55531 14.0938C3.48547 12.8553 3.48547 9.14328 3.55531 7.90625C3.61578 6.70484 3.88672 5.64031 4.76703 4.76562C5.64734 3.89094 6.71094 3.61438 7.90766 3.55719C9.14563 3.48734 12.8572 3.48734 14.0952 3.55719C15.2966 3.61766 16.3606 3.89234 17.2358 4.76891C18.1109 5.64547 18.3903 6.71047 18.4475 7.91187C18.5173 9.14563 18.5173 12.8544 18.4475 14.0938Z" fill="#006BE8"/>
</svg>
