<svg width="200" height="40" viewBox="0 0 200 40" fill="none" xmlns="http://www.w3.org/2000/svg">
<path d="M14.7274 2.65039H43.7876L40.144 12.3456H11.0835L14.7274 2.65039Z" fill="#006BE8"/>
<path d="M9.93292 15.2549H34.5826L30.9387 24.9503H6.28931L9.93292 15.2549Z" fill="#006BE8"/>
<path d="M5.33038 27.8584H18.9465L15.3027 37.5538H1.68677L5.33038 27.8584Z" fill="#006BE8"/>
<path d="M59.8194 35.1942H53.5427V11.3496H69.7825V16.7959H59.8194V21.213H68.1553V26.6593H59.8194V35.1942Z" fill="#151515"/>
<path d="M82.4464 35.1942V33.4674C81.8264 34.1758 81.1069 34.6961 80.2879 35.0281C79.4686 35.3604 78.4833 35.5264 77.3322 35.5264C75.4724 35.5264 73.9669 35.017 72.8156 33.9987C71.6864 32.958 71.1218 31.5966 71.1218 29.9139C71.1218 28.1647 71.8081 26.8363 73.1809 25.9286C74.5536 24.9987 76.5129 24.5339 79.0589 24.5339C79.5462 24.5339 80.011 24.5561 80.4539 24.6002C80.8965 24.6223 81.3062 24.6667 81.6825 24.7332V23.8696C81.6825 23.0946 81.4611 22.497 81.0184 22.0763C80.5977 21.6556 79.9888 21.4452 79.1919 21.4452C78.417 21.4452 77.797 21.6556 77.3322 22.0763C76.8893 22.497 76.6124 23.0946 76.5018 23.8696H71.3876C71.4982 22.4749 71.8968 21.2681 72.583 20.2498C73.2693 19.2091 74.1772 18.4122 75.3062 17.8587C76.4575 17.2831 77.7638 16.9951 79.225 16.9951C81.6825 16.9951 83.5977 17.6262 84.9705 18.8881C86.343 20.1501 87.0293 21.9103 87.0293 24.1686V35.1942H82.4464ZM76.4686 29.7479C76.4686 30.3236 76.6568 30.7773 77.0331 31.1093C77.4317 31.4416 77.9741 31.6076 78.6604 31.6076C79.6124 31.6076 80.3541 31.3973 80.8854 30.9766C81.417 30.5558 81.6825 29.9802 81.6825 29.2496V28.1204C81.2618 28.032 80.8746 27.9766 80.5201 27.9544C80.1659 27.9103 79.8006 27.8881 79.4242 27.8881C78.4722 27.8881 77.7416 28.0431 77.2324 28.353C76.7233 28.6631 76.4686 29.1279 76.4686 29.7479Z" fill="#151515"/>
<path d="M96.2477 35.1947H90.5687V17.3277H96.2477V35.1947ZM97.0113 13.1766C97.0113 14.1065 96.6682 14.8814 95.9819 15.5012C95.3179 16.099 94.4432 16.3978 93.3583 16.3978C92.2735 16.3978 91.388 16.099 90.7015 15.5012C90.0374 14.8814 89.7053 14.1065 89.7053 13.1766C89.7053 12.2245 90.0374 11.4496 90.7015 10.8518C91.388 10.232 92.2735 9.92188 93.3583 9.92188C94.4432 9.92188 95.3179 10.232 95.9819 10.8518C96.6682 11.4496 97.0113 12.2245 97.0113 13.1766Z" fill="#151515"/>
<path d="M105.653 26.9582V35.1941H99.9739V17.3271H105.188V20.4823C105.874 19.4416 106.859 18.6334 108.144 18.058C109.45 17.4823 110.811 17.1943 112.228 17.1943V23.1057C110.9 22.9729 109.737 22.9618 108.741 23.0727C107.767 23.1611 107.003 23.5042 106.45 24.1021C105.918 24.6777 105.653 25.6298 105.653 26.9582Z" fill="#151515"/>
<path d="M120.151 35.1942H114.406V11.3496H120.151V35.1942Z" fill="#151515"/>
<path d="M132.079 35.5264C130.75 35.5264 129.522 35.2939 128.393 34.8289C127.263 34.3419 126.278 33.6778 125.437 32.8363C124.596 31.9729 123.931 30.9876 123.444 29.8807C122.979 28.7515 122.747 27.545 122.747 26.2607C122.747 24.9766 122.979 23.7811 123.444 22.6742C123.931 21.545 124.596 20.5597 125.437 19.7185C126.278 18.8549 127.263 18.1908 128.393 17.7257C129.522 17.2387 130.75 16.9951 132.079 16.9951C133.407 16.9951 134.636 17.2387 135.765 17.7257C136.894 18.1908 137.88 18.8549 138.721 19.7185C139.562 20.5597 140.215 21.545 140.68 22.6742C141.167 23.7811 141.411 24.9766 141.411 26.2607C141.411 27.545 141.167 28.7515 140.68 29.8807C140.215 30.9876 139.562 31.9729 138.721 32.8363C137.88 33.6778 136.894 34.3419 135.765 34.8289C134.636 35.2939 133.407 35.5264 132.079 35.5264ZM132.079 30.4452C132.677 30.4452 133.23 30.2903 133.739 29.9802C134.271 29.6703 134.691 29.2055 135.002 28.5855C135.334 27.9655 135.5 27.1905 135.5 26.2607C135.5 25.3308 135.334 24.5561 135.002 23.9361C134.691 23.3161 134.271 22.8623 133.739 22.5744C133.23 22.2645 132.677 22.1096 132.079 22.1096C131.503 22.1096 130.95 22.2645 130.418 22.5744C129.887 22.8623 129.455 23.3161 129.123 23.9361C128.813 24.5561 128.658 25.3308 128.658 26.2607C128.658 27.1905 128.813 27.9655 129.123 28.5855C129.455 29.2055 129.887 29.6703 130.418 29.9802C130.95 30.2903 131.503 30.4452 132.079 30.4452Z" fill="#151515"/>
<path d="M154.477 35.1942V33.4674C153.857 34.1758 153.138 34.6961 152.319 35.0281C151.499 35.3604 150.514 35.5264 149.363 35.5264C147.503 35.5264 145.998 35.017 144.846 33.9987C143.717 32.958 143.153 31.5966 143.153 29.9139C143.153 28.1647 143.839 26.8363 145.212 25.9286C146.584 24.9987 148.544 24.5339 151.09 24.5339C151.577 24.5339 152.042 24.5561 152.485 24.6002C152.928 24.6223 153.337 24.6667 153.713 24.7332V23.8696C153.713 23.0946 153.492 22.497 153.049 22.0763C152.628 21.6556 152.02 21.4452 151.223 21.4452C150.448 21.4452 149.828 21.6556 149.363 22.0763C148.92 22.497 148.643 23.0946 148.533 23.8696H143.418C143.529 22.4749 143.928 21.2681 144.614 20.2498C145.3 19.2091 146.208 18.4122 147.337 17.8587C148.488 17.2831 149.795 16.9951 151.256 16.9951C153.713 16.9951 155.628 17.6262 157.001 18.8881C158.374 20.1501 159.06 21.9103 159.06 24.1686V35.1942H154.477ZM148.499 29.7479C148.499 30.3236 148.688 30.7773 149.064 31.1093C149.462 31.4416 150.005 31.6076 150.691 31.6076C151.643 31.6076 152.385 31.3973 152.916 30.9766C153.448 30.5558 153.713 29.9802 153.713 29.2496V28.1204C153.293 28.032 152.905 27.9766 152.551 27.9544C152.197 27.9103 151.831 27.8881 151.455 27.8881C150.503 27.8881 149.773 28.0431 149.263 28.353C148.754 28.6631 148.499 29.1279 148.499 29.7479Z" fill="#151515"/>
<path d="M168.278 25.7958V35.1942H162.599V17.3272H167.813V19.486C168.522 18.711 169.297 18.1021 170.138 17.6595C171.002 17.2166 171.998 16.9951 173.127 16.9951C174.898 16.9951 176.337 17.5708 177.444 18.7221C178.573 19.8734 179.138 21.5339 179.138 23.7035V35.1942H173.459V25.5966C173.459 24.4674 173.249 23.604 172.828 23.0062C172.429 22.4084 171.799 22.1096 170.935 22.1096C170.47 22.1096 170.027 22.2313 169.607 22.4749C169.208 22.7185 168.887 23.1057 168.644 23.6373C168.4 24.1686 168.278 24.8881 168.278 25.7958Z" fill="#151515"/>
<path d="M198.548 29.1168C198.548 31.0874 197.84 32.6481 196.423 33.7994C195.006 34.9508 192.947 35.5264 190.246 35.5264C187.567 35.5264 185.497 34.9397 184.035 33.7662C182.574 32.5708 181.755 30.9433 181.578 28.8843H187.024C187.024 29.637 187.334 30.2349 187.954 30.6778C188.574 31.1204 189.371 31.3419 190.345 31.3419C190.987 31.3419 191.552 31.2534 192.039 31.0763C192.548 30.8992 192.803 30.578 192.803 30.1132C192.803 29.7146 192.648 29.4156 192.338 29.2166C192.05 29.0173 191.596 28.8621 190.976 28.7515L187.456 28.1204C185.906 27.8327 184.666 27.246 183.736 26.3604C182.807 25.4749 182.342 24.3125 182.342 22.8734C182.342 21.7221 182.652 20.7035 183.272 19.818C183.891 18.9325 184.766 18.2462 185.895 17.759C187.047 17.2498 188.397 16.9951 189.947 16.9951C191.519 16.9951 192.902 17.2609 194.098 17.7922C195.294 18.3014 196.246 19.0431 196.954 20.0173C197.685 20.9915 198.105 22.1428 198.216 23.471H192.77C192.703 22.7626 192.415 22.2091 191.906 21.8105C191.397 21.3901 190.755 21.1797 189.98 21.1797C189.316 21.1797 188.784 21.2792 188.386 21.4785C187.987 21.6556 187.788 21.9436 187.788 22.3421C187.788 22.7183 187.932 22.984 188.22 23.139C188.508 23.2939 188.928 23.4269 189.482 23.5375L193.268 24.2349C194.995 24.545 196.301 25.1207 197.187 25.9619C198.094 26.7811 198.548 27.8327 198.548 29.1168Z" fill="#151515"/>
</svg>
