<svg width="65" height="65" viewBox="0 0 65 65" fill="none" xmlns="http://www.w3.org/2000/svg">
<rect x="0.333252" y="0.5" width="64" height="64" rx="32" fill="#006BE8"/>
<path d="M39.4565 25.5899C39.5732 25.5308 39.7023 25.4999 39.8332 25.4999C39.9641 25.4999 40.0931 25.5308 40.2098 25.5899L46.0432 28.5383C46.1805 28.6079 46.2959 28.7142 46.3765 28.8454C46.4572 28.9766 46.4998 29.1276 46.4998 29.2816V36.7233C46.4998 36.8773 46.4572 37.0282 46.3765 37.1595C46.2959 37.2907 46.1805 37.397 46.0432 37.4666L40.2098 40.4166C40.0931 40.4757 39.9641 40.5066 39.8332 40.5066C39.7023 40.5066 39.5732 40.4757 39.4565 40.4166L33.6232 37.4666C33.4858 37.397 33.3704 37.2907 33.2898 37.1595C33.2092 37.0282 33.1665 36.8773 33.1665 36.7233V29.2833C33.1665 29.1293 33.2092 28.9783 33.2898 28.8471C33.3704 28.7158 33.4858 28.6095 33.6232 28.5399L39.4565 25.5899ZM41.3365 23.3583C40.8704 23.1227 40.3554 23 39.8332 23C39.3109 23 38.796 23.1227 38.3298 23.3583L32.4965 26.3083C31.9467 26.5861 31.4846 27.0109 31.1615 27.5355C30.8385 28.06 30.6671 28.6639 30.6665 29.2799V36.7216C30.6665 37.3382 30.8376 37.9428 31.1606 38.468C31.4837 38.9932 31.9461 39.4185 32.4965 39.6966L38.3298 42.6466C38.796 42.8821 39.3109 43.0048 39.8332 43.0048C40.3554 43.0048 40.8704 42.8821 41.3365 42.6466L47.1698 39.6966C47.7199 39.4186 48.1822 38.9936 48.5053 38.4687C48.8283 37.9438 48.9995 37.3396 48.9998 36.7233V29.2833C48.9998 28.6666 48.8288 28.0621 48.5057 27.5369C48.1826 27.0117 47.7202 26.5864 47.1698 26.3083L41.3365 23.3583ZM18.9998 25.9083C18.9998 25.5767 19.1315 25.2588 19.366 25.0244C19.6004 24.7899 19.9183 24.6583 20.2498 24.6583H27.7498C28.0814 24.6583 28.3993 24.7899 28.6337 25.0244C28.8681 25.2588 28.9998 25.5767 28.9998 25.9083C28.9998 26.2398 28.8681 26.5577 28.6337 26.7921C28.3993 27.0266 28.0814 27.1583 27.7498 27.1583H20.2498C19.9183 27.1583 19.6004 27.0266 19.366 26.7921C19.1315 26.5577 18.9998 26.2398 18.9998 25.9083ZM15.6665 32.5749C15.6665 32.2434 15.7982 31.9255 16.0326 31.691C16.267 31.4566 16.585 31.3249 16.9165 31.3249H24.4165C24.748 31.3249 25.066 31.4566 25.3004 31.691C25.5348 31.9255 25.6665 32.2434 25.6665 32.5749C25.6665 32.9064 25.5348 33.2244 25.3004 33.4588C25.066 33.6932 24.748 33.8249 24.4165 33.8249H16.9165C16.585 33.8249 16.267 33.6932 16.0326 33.4588C15.7982 33.2244 15.6665 32.9064 15.6665 32.5749ZM20.2498 37.9916C19.9183 37.9916 19.6004 38.1233 19.366 38.3577C19.1315 38.5921 18.9998 38.9101 18.9998 39.2416C18.9998 39.5731 19.1315 39.891 19.366 40.1255C19.6004 40.3599 19.9183 40.4916 20.2498 40.4916H27.7498C28.0814 40.4916 28.3993 40.3599 28.6337 40.1255C28.8681 39.891 28.9998 39.5731 28.9998 39.2416C28.9998 38.9101 28.8681 38.5921 28.6337 38.3577C28.3993 38.1233 28.0814 37.9916 27.7498 37.9916H20.2498ZM34.9698 30.3416C35.1203 30.0465 35.3817 29.8231 35.6967 29.7206C36.0117 29.6181 36.3545 29.6448 36.6498 29.7949L39.8332 31.4133L43.0165 29.7933C43.1629 29.7181 43.3227 29.6726 43.4867 29.6594C43.6507 29.6461 43.8157 29.6654 43.9722 29.7161C44.1288 29.7667 44.2738 29.8478 44.3989 29.9547C44.5241 30.0615 44.6269 30.192 44.7015 30.3386C44.7761 30.4853 44.821 30.6453 44.8336 30.8093C44.8463 30.9734 44.8264 31.1383 44.7751 31.2947C44.7239 31.451 44.6423 31.5957 44.535 31.7205C44.4277 31.8452 44.2968 31.9475 44.1498 32.0216L41.0832 33.5833V36.7533C41.0832 37.0848 40.9515 37.4027 40.7171 37.6371C40.4826 37.8716 40.1647 38.0033 39.8332 38.0033C39.5016 38.0033 39.1837 37.8716 38.9493 37.6371C38.7149 37.4027 38.5832 37.0848 38.5832 36.7533V33.5833L35.5165 32.0216C35.2214 31.8711 34.998 31.6097 34.8955 31.2947C34.793 30.9797 34.8198 30.6369 34.9698 30.3416Z" fill="#F8F8F8"/>
</svg>
