<svg width="72" height="72" viewBox="0 0 72 72" fill="none" xmlns="http://www.w3.org/2000/svg">
<rect width="72" height="72" rx="36" fill="#1B424C"/>
<path d="M39.9515 35.4459C39.7396 34.8409 39.3446 34.3169 38.8213 33.9468C38.298 33.5766 37.6724 33.3785 37.0315 33.3801H34.6372C33.955 33.3788 33.2964 33.6299 32.7882 34.0851C32.2801 34.5403 31.9583 35.1674 31.8849 35.8456C31.8115 36.5239 31.9916 37.2053 32.3905 37.7587C32.7895 38.3121 33.3791 38.6983 34.0458 38.843L37.6943 39.643C38.4378 39.8088 39.0941 40.2428 39.5377 40.8619C39.9814 41.4811 40.1813 42.2421 40.0993 42.9994C40.0173 43.7567 39.659 44.4572 39.0931 44.967C38.5272 45.4768 37.7932 45.7602 37.0315 45.763H34.9715C33.6229 45.763 32.4772 44.9001 32.0515 43.7001M36 33.3801V30.2859M36 48.8573V45.763M36 54.5716C46 54.5716 53.1429 51.0344 53.1429 43.1601C53.1429 34.603 48.8572 28.8973 40.2858 24.6173L43.6572 20.2801C43.8289 19.9956 43.9221 19.6707 43.9274 19.3385C43.9326 19.0062 43.8498 18.6785 43.6871 18.3887C43.5245 18.0989 43.288 17.8574 43.0017 17.6888C42.7154 17.5201 42.3895 17.4304 42.0572 17.4287H29.9429C29.6113 17.4322 29.2865 17.523 29.0012 17.692C28.7159 17.8611 28.4803 18.1024 28.318 18.3916C28.1557 18.6807 28.0726 19.0076 28.0769 19.3392C28.0813 19.6708 28.1731 19.9953 28.3429 20.2801L31.7143 24.6459C23.1429 28.9544 18.8572 34.6601 18.8572 43.2173C18.8572 51.0344 26 54.5716 36 54.5716Z" stroke="#CBE3FF" stroke-width="2.3" stroke-linecap="round" stroke-linejoin="round"/>
</svg>
