<svg width="65" height="65" viewBox="0 0 65 65" fill="none" xmlns="http://www.w3.org/2000/svg">
<rect x="0.333252" y="0.5" width="64" height="64" rx="32" fill="#006BE8"/>
<path d="M32.3298 16.3335L32.3832 16.3368L32.5265 16.3452C32.7254 16.3682 32.9184 16.427 33.0965 16.5185L33.2715 16.6218L33.4332 16.7485L33.4598 16.7735L33.8715 17.1235C37.2337 19.9161 41.4829 21.4157 45.8532 21.3518L46.4232 21.3352C46.7958 21.3182 47.1634 21.4267 47.4671 21.6433C47.7708 21.86 47.993 22.1723 48.0982 22.5302C48.9171 25.3161 49.1678 28.2383 48.8351 31.123C48.5025 34.0078 47.5933 36.7962 46.1617 39.3226C44.7301 41.8491 42.8053 44.0619 40.5016 45.8298C38.1979 47.5976 35.5623 48.8844 32.7515 49.6135C32.4771 49.6846 32.1892 49.6846 31.9148 49.6135C29.1039 48.8845 26.4681 47.5979 24.1642 45.8302C21.8603 44.0624 19.9353 41.8496 18.5035 39.3231C17.0718 36.7966 16.1625 34.0082 15.8297 31.1233C15.497 28.2385 15.7475 25.3162 16.5665 22.5302C16.6717 22.1723 16.8939 21.86 17.1976 21.6433C17.5012 21.4267 17.8688 21.3182 18.2415 21.3352C23.0009 21.5527 27.6581 19.9088 31.2265 16.7518L31.3032 16.6918L31.3915 16.6235C31.504 16.5467 31.6254 16.484 31.7532 16.4368L31.8782 16.3985L31.9382 16.3818C32.004 16.3655 32.0708 16.3533 32.1382 16.3452L32.2815 16.3368L32.3298 16.3335ZM32.3332 20.1602L32.0398 20.3852C28.5191 23.0124 24.283 24.5073 19.8932 24.6718L19.4532 24.6818L19.3465 25.1985C18.5686 29.2705 19.1937 33.4859 21.1198 37.1568L21.4032 37.6802C23.7569 41.8328 27.6374 44.9038 32.2198 46.2402L32.3332 46.2718V20.1602Z" fill="#F8F8F8"/>
</svg>
