<svg width="328" height="56" viewBox="0 0 328 56" fill="none" xmlns="http://www.w3.org/2000/svg">
<path d="M28.0001 40.297L42.4201 49.0003L38.5934 32.597L51.3334 21.5603L34.5568 20.137L28.0001 4.66699L21.4434 20.137L4.66675 21.5603L17.4067 32.597L13.5801 49.0003L28.0001 40.297Z" fill="#FCC21B"/>
<path d="M96.0001 40.297L110.42 49.0003L106.593 32.597L119.333 21.5603L102.557 20.137L96.0001 4.66699L89.4434 20.137L72.6667 21.5603L85.4067 32.597L81.5801 49.0003L96.0001 40.297Z" fill="#FCC21B"/>
<path d="M164 40.297L178.42 49.0003L174.593 32.597L187.333 21.5603L170.557 20.137L164 4.66699L157.443 20.137L140.667 21.5603L153.407 32.597L149.58 49.0003L164 40.297Z" fill="#FCC21B"/>
<path d="M232 40.297L246.42 49.0003L242.593 32.597L255.333 21.5603L238.557 20.137L232 4.66699L225.443 20.137L208.667 21.5603L221.407 32.597L217.58 49.0003L232 40.297Z" fill="#FCC21B"/>
<path d="M300 40.297L314.42 49.0003L310.593 32.597L323.333 21.5603L306.557 20.137L300 4.66699L293.443 20.137L276.667 21.5603L289.407 32.597L285.58 49.0003L300 40.297Z" fill="#FCC21B"/>
</svg>
