<svg width="440" height="88" viewBox="0 0 440 88" fill="none" xmlns="http://www.w3.org/2000/svg">
<g opacity="0.3">
<path d="M32.4005 5.83105H96.333L88.3171 27.1604H24.384L32.4005 5.83105Z" fill="#CBE3FF"/>
<path d="M21.8526 33.5596H76.0818L68.0653 54.8895H13.8367L21.8526 33.5596Z" fill="#CBE3FF"/>
<path d="M11.7269 61.2881H41.6824L33.6659 82.618H3.71094L11.7269 61.2881Z" fill="#CBE3FF"/>
<path d="M131.603 77.4278H117.794V24.9697H153.521V36.9515H131.603V46.6691H149.942V58.651H131.603V77.4278Z" fill="#CBE3FF"/>
<path d="M181.382 77.4275V73.6287C180.018 75.1872 178.435 76.3318 176.634 77.0623C174.831 77.7933 172.663 78.1585 170.131 78.1585C166.04 78.1585 162.727 77.0379 160.194 74.7976C157.71 72.508 156.468 69.5128 156.468 65.811C156.468 61.9628 157.978 59.0403 160.998 57.0433C164.018 54.9976 168.329 53.975 173.93 53.975C175.002 53.975 176.024 54.0238 176.999 54.1208C177.973 54.1695 178.874 54.2671 179.702 54.4134V52.5135C179.702 50.8086 179.215 49.4939 178.241 48.5683C177.315 47.6427 175.976 47.1799 174.223 47.1799C172.518 47.1799 171.154 47.6427 170.131 48.5683C169.157 49.4939 168.548 50.8086 168.304 52.5135H157.053C157.296 49.4451 158.173 46.7903 159.683 44.55C161.193 42.2604 163.19 40.5073 165.674 39.2896C168.207 38.0231 171.08 37.3896 174.295 37.3896C179.702 37.3896 183.915 38.778 186.935 41.5543C189.955 44.3305 191.465 48.2031 191.465 53.1713V77.4275H181.382ZM168.231 65.4458C168.231 66.7122 168.645 67.7104 169.473 68.4409C170.35 69.1719 171.543 69.5372 173.053 69.5372C175.148 69.5372 176.779 69.0744 177.948 68.1488C179.118 67.2232 179.702 65.9568 179.702 64.3495V61.8653C178.776 61.6707 177.924 61.5488 177.145 61.5001C176.365 61.4031 175.562 61.3543 174.734 61.3543C172.639 61.3543 171.032 61.6951 169.912 62.3769C168.791 63.0591 168.231 64.0818 168.231 65.4458Z" fill="#CBE3FF"/>
<path d="M211.745 77.4282H199.251V38.1209H211.745V77.4282ZM213.425 28.9885C213.425 31.0342 212.67 32.7391 211.16 34.1025C209.699 35.4178 207.775 36.0751 205.388 36.0751C203.002 36.0751 201.053 35.4178 199.543 34.1025C198.082 32.7391 197.352 31.0342 197.352 28.9885C197.352 26.894 198.082 25.1891 199.543 23.8739C201.053 22.5104 203.002 21.8281 205.388 21.8281C207.775 21.8281 209.699 22.5104 211.16 23.8739C212.67 25.1891 213.425 26.894 213.425 28.9885Z" fill="#CBE3FF"/>
<path d="M232.436 59.3086V77.4276H219.943V38.1202H231.414V45.0616C232.923 42.772 235.091 40.994 237.916 39.7281C240.79 38.4616 243.785 37.8281 246.903 37.8281V50.8331C243.98 50.541 241.423 50.5166 239.231 50.7604C237.088 50.955 235.408 51.7099 234.19 53.0251C233.021 54.2916 232.436 56.3861 232.436 59.3086Z" fill="#CBE3FF"/>
<path d="M264.333 77.4278H251.693V24.9697H264.333V77.4278Z" fill="#CBE3FF"/>
<path d="M290.573 78.1585C287.651 78.1585 284.948 77.647 282.464 76.6239C279.98 75.5525 277.812 74.0915 275.961 72.2403C274.11 70.3409 272.649 68.1732 271.578 65.7378C270.555 63.2537 270.043 60.5994 270.043 57.7738C270.043 54.9488 270.555 52.3189 271.578 49.8835C272.649 47.3994 274.11 45.2317 275.961 43.3811C277.812 41.4811 279.98 40.0201 282.464 38.997C284.948 37.9256 287.651 37.3896 290.573 37.3896C293.496 37.3896 296.199 37.9256 298.683 38.997C301.167 40.0201 303.335 41.4811 305.186 43.3811C307.037 45.2317 308.474 47.3994 309.497 49.8835C310.568 52.3189 311.104 54.9488 311.104 57.7738C311.104 60.5994 310.568 63.2537 309.497 65.7378C308.474 68.1732 307.037 70.3409 305.186 72.2403C303.335 74.0915 301.167 75.5525 298.683 76.6239C296.199 77.647 293.496 78.1585 290.573 78.1585ZM290.573 66.9799C291.889 66.9799 293.106 66.639 294.227 65.9568C295.395 65.275 296.321 64.2524 297.003 62.8884C297.734 61.5244 298.099 59.8196 298.099 57.7738C298.099 55.7281 297.734 54.0238 297.003 52.6598C296.321 51.2958 295.395 50.2975 294.227 49.6641C293.106 48.9823 291.889 48.6414 290.573 48.6414C289.307 48.6414 288.089 48.9823 286.92 49.6641C285.752 50.2975 284.802 51.2958 284.071 52.6598C283.389 54.0238 283.048 55.7281 283.048 57.7738C283.048 59.8196 283.389 61.5244 284.071 62.8884C284.802 64.2524 285.752 65.275 286.92 65.9568C288.089 66.639 289.307 66.9799 290.573 66.9799Z" fill="#CBE3FF"/>
<path d="M339.85 77.4275V73.6287C338.486 75.1872 336.903 76.3318 335.101 77.0623C333.298 77.7933 331.131 78.1585 328.598 78.1585C324.507 78.1585 321.195 77.0379 318.662 74.7976C316.178 72.508 314.936 69.5128 314.936 65.811C314.936 61.9628 316.445 59.0403 319.465 57.0433C322.486 54.9976 326.796 53.975 332.397 53.975C333.469 53.975 334.492 54.0238 335.466 54.1208C336.44 54.1695 337.341 54.2671 338.169 54.4134V52.5135C338.169 50.8086 337.682 49.4939 336.708 48.5683C335.783 47.6427 334.443 47.1799 332.69 47.1799C330.985 47.1799 329.621 47.6427 328.598 48.5683C327.624 49.4939 327.015 50.8086 326.772 52.5135H315.52C315.764 49.4451 316.64 46.7903 318.15 44.55C319.66 42.2604 321.657 40.5073 324.142 39.2896C326.674 38.0231 329.548 37.3896 332.763 37.3896C338.169 37.3896 342.383 38.778 345.403 41.5543C348.422 44.3305 349.932 48.2031 349.932 53.1713V77.4275H339.85ZM326.698 65.4458C326.698 66.7122 327.112 67.7104 327.94 68.4409C328.817 69.1719 330.011 69.5372 331.521 69.5372C333.615 69.5372 335.247 69.0744 336.416 68.1488C337.585 67.2232 338.169 65.9568 338.169 64.3495V61.8653C337.244 61.6707 336.392 61.5488 335.612 61.5001C334.833 61.4031 334.029 61.3543 333.201 61.3543C331.107 61.3543 329.5 61.6951 328.379 62.3769C327.259 63.0591 326.698 64.0818 326.698 65.4458Z" fill="#CBE3FF"/>
<path d="M370.212 56.7512V77.4275H357.719V38.1201H369.189V42.8695C370.748 41.1646 372.453 39.825 374.304 38.8512C376.203 37.8768 378.395 37.3896 380.879 37.3896C384.776 37.3896 387.942 38.6561 390.377 41.189C392.861 43.7219 394.103 47.375 394.103 52.1482V77.4275H381.61V56.3128C381.61 53.8287 381.147 51.9293 380.222 50.614C379.345 49.2988 377.957 48.6414 376.057 48.6414C375.034 48.6414 374.06 48.9091 373.135 49.4451C372.258 49.9811 371.551 50.833 371.016 52.0024C370.48 53.1713 370.212 54.7543 370.212 56.7512Z" fill="#CBE3FF"/>
<path d="M436.806 64.0574C436.806 68.3927 435.247 71.8263 432.13 74.3592C429.013 76.8921 424.483 78.1585 418.54 78.1585C412.647 78.1585 408.093 76.8677 404.878 74.286C401.663 71.6561 399.861 68.0757 399.471 63.5458H411.454C411.454 65.2019 412.135 66.5171 413.499 67.4915C414.863 68.4653 416.616 68.9525 418.76 68.9525C420.172 68.9525 421.414 68.7579 422.486 68.3683C423.606 67.9787 424.166 67.272 424.166 66.2494C424.166 65.3726 423.825 64.7147 423.143 64.2768C422.51 63.8384 421.512 63.497 420.148 63.2537L412.403 61.8653C408.994 61.2323 406.266 59.9415 404.22 57.9933C402.174 56.0451 401.152 53.4878 401.152 50.3219C401.152 47.789 401.833 45.5482 403.197 43.6C404.561 41.6518 406.485 40.142 408.969 39.0701C411.502 37.95 414.473 37.3896 417.883 37.3896C421.341 37.3896 424.385 37.9744 427.016 39.1433C429.646 40.2634 431.74 41.8951 433.299 44.0384C434.906 46.1817 435.832 48.7146 436.075 51.6366H424.093C423.947 50.0781 423.314 48.8604 422.193 47.9836C421.073 47.0585 419.661 46.5957 417.956 46.5957C416.494 46.5957 415.326 46.8147 414.449 47.2531C413.572 47.6427 413.134 48.2762 413.134 49.153C413.134 49.9805 413.45 50.5653 414.083 50.9061C414.717 51.247 415.642 51.5396 416.86 51.783L425.189 53.3171C428.988 53.9994 431.862 55.2658 433.81 57.1165C435.807 58.9189 436.806 61.2323 436.806 64.0574Z" fill="#CBE3FF"/>
</g>
</svg>
